<svg width="192" height="41" viewBox="0 0 192 41" fill="none" xmlns="http://www.w3.org/2000/svg">
<path d="M55.3215 30.2534H58.2618C58.8787 30.2534 59.3897 30.3948 59.7946 30.6776C60.2059 30.9604 60.4115 31.3909 60.4115 31.9694C60.4115 32.3357 60.2958 32.6602 60.0645 32.943C59.8395 33.2258 59.56 33.4057 59.2258 33.4829C59.65 33.5664 59.997 33.7431 60.2669 34.0131C60.5433 34.283 60.6814 34.6622 60.6814 35.1506C60.6814 35.7868 60.4597 36.2753 60.0163 36.6159C59.5793 36.9501 59.0266 37.1172 58.3582 37.1172H55.3215V30.2534ZM55.9578 30.8125V33.2901H58.1365C58.5928 33.2901 58.9784 33.1937 59.2933 33.0008C59.6082 32.808 59.7656 32.4931 59.7656 32.0561C59.7656 31.799 59.7142 31.5837 59.6114 31.4102C59.515 31.2367 59.3736 31.1082 59.1872 31.0246C59.0009 30.9411 58.8113 30.8864 58.6185 30.8607C58.4321 30.8286 58.2136 30.8125 57.9629 30.8125H55.9578ZM55.9578 33.8203V36.5581H58.0111C58.2875 36.5581 58.5285 36.542 58.7341 36.5099C58.9462 36.4777 59.1551 36.4167 59.3607 36.3267C59.5728 36.2303 59.7367 36.0857 59.8524 35.8929C59.9681 35.6937 60.0259 35.4494 60.0259 35.1602C60.0259 34.8839 59.9649 34.6525 59.8428 34.4661C59.7271 34.2733 59.56 34.1352 59.3415 34.0516C59.123 33.9616 58.9077 33.9006 58.6956 33.8685C58.4835 33.8363 58.2425 33.8203 57.9726 33.8203H55.9578ZM64.9134 30.0895C65.871 30.0895 66.6486 30.4237 67.2463 31.0921C67.8504 31.7605 68.1525 32.6313 68.1525 33.7046C68.1525 34.7714 67.8536 35.6358 67.2559 36.2978C66.6583 36.9533 65.8742 37.2811 64.9038 37.2811C63.9397 37.2811 63.1621 36.9501 62.5708 36.2881C61.9796 35.6262 61.6839 34.7586 61.6839 33.6853C61.6839 32.612 61.9796 31.7444 62.5708 31.0825C63.1685 30.4205 63.9494 30.0895 64.9134 30.0895ZM64.9038 30.6583C64.139 30.6583 63.5188 30.9346 63.0432 31.4873C62.5741 32.04 62.3395 32.7663 62.3395 33.666C62.3395 34.585 62.5741 35.3241 63.0432 35.8832C63.5124 36.436 64.1358 36.7123 64.9134 36.7123C65.691 36.7123 66.3144 36.436 66.7836 35.8832C67.2592 35.3305 67.497 34.6011 67.497 33.6949C67.497 32.7888 67.2592 32.0561 66.7836 31.497C66.308 30.9379 65.6814 30.6583 64.9038 30.6583ZM69.5041 30.2534H72.4444C73.1063 30.2534 73.6301 30.4205 74.0157 30.7547C74.4078 31.0825 74.6038 31.558 74.6038 32.1814C74.6038 32.837 74.4078 33.335 74.0157 33.6757C73.6237 34.0163 73.0935 34.1866 72.4251 34.1866H70.1597V37.1172H69.5041V30.2534ZM70.1597 30.8125V33.6371H72.2419C72.7496 33.6371 73.161 33.5246 73.4759 33.2997C73.7908 33.0683 73.9482 32.7116 73.9482 32.2296C73.9482 31.7541 73.8036 31.4006 73.5144 31.1692C73.2252 30.9314 72.8236 30.8125 72.3094 30.8125H70.1597ZM78.7093 30.0895C79.6669 30.0895 80.4446 30.4237 81.0422 31.0921C81.6464 31.7605 81.9484 32.6313 81.9484 33.7046C81.9484 34.7714 81.6496 35.6358 81.0519 36.2978C80.4542 36.9533 79.6701 37.2811 78.6997 37.2811C77.7357 37.2811 76.958 36.9501 76.3668 36.2881C75.7755 35.6262 75.4799 34.7586 75.4799 33.6853C75.4799 32.612 75.7755 31.7444 76.3668 31.0825C76.9645 30.4205 77.7453 30.0895 78.7093 30.0895ZM78.6997 30.6583C77.9349 30.6583 77.3147 30.9346 76.8391 31.4873C76.37 32.04 76.1354 32.7663 76.1354 33.666C76.1354 34.585 76.37 35.3241 76.8391 35.8832C77.3083 36.436 77.9317 36.7123 78.7093 36.7123C79.487 36.7123 80.1104 36.436 80.5795 35.8832C81.0551 35.3305 81.2929 34.6011 81.2929 33.6949C81.2929 32.7888 81.0551 32.0561 80.5795 31.497C80.1039 30.9379 79.4773 30.6583 78.6997 30.6583ZM87.8254 30.2534V30.8125H85.4153V37.1172H84.7598V30.8125H82.3498V30.2534H87.8254ZM90.8071 30.2341L93.5449 37.1172H92.8219L91.9928 34.9578H88.8502L88.0115 37.1172H87.3077L90.0841 30.2341H90.8071ZM91.7904 34.4276L90.4408 30.8511L89.0526 34.4276H91.7904ZM97.5379 39.1802V29.54H98.0585V39.1802H97.5379ZM102.821 30.2534H105.761C106.378 30.2534 106.889 30.3948 107.294 30.6776C107.705 30.9604 107.911 31.3909 107.911 31.9694C107.911 32.3357 107.795 32.6602 107.564 32.943C107.339 33.2258 107.059 33.4057 106.725 33.4829C107.149 33.5664 107.496 33.7431 107.766 34.0131C108.042 34.283 108.181 34.6622 108.181 35.1506C108.181 35.7868 107.959 36.2753 107.515 36.6159C107.078 36.9501 106.526 37.1172 105.857 37.1172H102.821V30.2534ZM103.457 30.8125V33.2901H105.636C106.092 33.2901 106.478 33.1937 106.792 33.0008C107.107 32.808 107.265 32.4931 107.265 32.0561C107.265 31.799 107.213 31.5837 107.111 31.4102C107.014 31.2367 106.873 31.1082 106.686 31.0246C106.5 30.9411 106.31 30.8864 106.118 30.8607C105.931 30.8286 105.713 30.8125 105.462 30.8125H103.457ZM103.457 33.8203V36.5581H105.51C105.787 36.5581 106.028 36.542 106.233 36.5099C106.445 36.4777 106.654 36.4167 106.86 36.3267C107.072 36.2303 107.236 36.0857 107.352 35.8929C107.467 35.6937 107.525 35.4494 107.525 35.1602C107.525 34.8839 107.464 34.6525 107.342 34.4661C107.226 34.2733 107.059 34.1352 106.841 34.0516C106.622 33.9616 106.407 33.9006 106.195 33.8685C105.983 33.8363 105.742 33.8203 105.472 33.8203H103.457ZM110.244 30.2534V37.1172H109.588V30.2534H110.244ZM117.471 30.2534L114.376 33.0587L117.625 37.1172H116.786L113.913 33.5021L112.602 34.6975V37.1172H111.956V30.2534H112.602V33.9456L116.603 30.2534H117.471ZM123.905 30.2534V37.1172H123.249V33.801H119.152V37.1172H118.497V30.2534H119.152V33.2419H123.249V30.2534H123.905ZM128.302 30.2341L131.039 37.1172H130.316L129.487 34.9578H126.345L125.506 37.1172H124.802L127.579 30.2341H128.302ZM129.285 34.4276L127.935 30.8511L126.547 34.4276H129.285ZM135.032 39.1802V29.54H135.553V39.1802H135.032ZM146.311 38.9681H145.656V37.1172H140.334V38.9681H139.679V36.5581H140.306C140.479 36.2367 140.627 35.909 140.749 35.5748C140.878 35.2341 140.977 34.8646 141.048 34.4661C141.119 34.0677 141.173 33.7431 141.212 33.4925C141.257 33.2419 141.286 32.8852 141.298 32.4224C141.318 31.9597 141.327 31.6673 141.327 31.5452C141.327 31.4167 141.327 31.1178 141.327 30.6487V30.2534H145.588V36.5581H146.311V38.9681ZM144.933 36.5581V30.8125H141.983V30.9379C141.983 31.4906 141.976 31.9276 141.964 32.2489C141.951 32.5703 141.919 33.0137 141.867 33.5793C141.816 34.1384 141.716 34.6654 141.568 35.1602C141.421 35.6487 141.231 36.1146 141 36.5581H144.933ZM147.392 30.2534H150.332C150.949 30.2534 151.46 30.3948 151.865 30.6776C152.276 30.9604 152.482 31.3909 152.482 31.9694C152.482 32.3357 152.366 32.6602 152.135 32.943C151.91 33.2258 151.63 33.4057 151.296 33.4829C151.72 33.5664 152.067 33.7431 152.337 34.0131C152.614 34.283 152.752 34.6622 152.752 35.1506C152.752 35.7868 152.53 36.2753 152.087 36.6159C151.65 36.9501 151.097 37.1172 150.429 37.1172H147.392V30.2534ZM148.028 30.8125V33.2901H150.207C150.663 33.2901 151.049 33.1937 151.364 33.0008C151.679 32.808 151.836 32.4931 151.836 32.0561C151.836 31.799 151.785 31.5837 151.682 31.4102C151.585 31.2367 151.444 31.1082 151.258 31.0246C151.071 30.9411 150.882 30.8864 150.689 30.8607C150.503 30.8286 150.284 30.8125 150.033 30.8125H148.028ZM148.028 33.8203V36.5581H150.082C150.358 36.5581 150.599 36.542 150.805 36.5099C151.017 36.4777 151.226 36.4167 151.431 36.3267C151.643 36.2303 151.807 36.0857 151.923 35.8929C152.039 35.6937 152.096 35.4494 152.096 35.1602C152.096 34.8839 152.035 34.6525 151.913 34.4661C151.798 34.2733 151.63 34.1352 151.412 34.0516C151.193 33.9616 150.978 33.9006 150.766 33.8685C150.554 33.8363 150.313 33.8203 150.043 33.8203H148.028ZM158.873 30.2534V30.8125H154.767V33.2901H158.613V33.8395H154.767V36.5581H158.912V37.1172H154.111V30.2534H158.873ZM160.144 30.2534H163.084C163.746 30.2534 164.27 30.4205 164.655 30.7547C165.047 31.0825 165.243 31.558 165.243 32.1814C165.243 32.837 165.047 33.335 164.655 33.6757C164.263 34.0163 163.733 34.1866 163.065 34.1866H160.799V37.1172H160.144V30.2534ZM160.799 30.8125V33.6371H162.881C163.389 33.6371 163.8 33.5246 164.115 33.2997C164.43 33.0683 164.588 32.7116 164.588 32.2296C164.588 31.7541 164.443 31.4006 164.154 31.1692C163.865 30.9314 163.463 30.8125 162.949 30.8125H160.799ZM167.18 30.2534V37.1172H166.524V30.2534H167.18Z" fill="#70706F"/>
<path d="M52.218 4.95925H55.8887L59.1148 15.5053L62.6077 4.91427H65.5446L69.0386 15.5053L72.2636 4.95925H75.8465L70.5285 20.6455H67.5476L64.0322 10.454L60.5169 20.6455H57.535L52.218 4.95925Z" fill="#4A4949"/>
<path d="M77.4102 4.95917H80.8366V20.533H77.4102V4.95917Z" fill="#4A4949"/>
<path d="M90.274 0.0198574L93.1884 1.28804L90.1626 3.51271H87.5812L90.274 0.0198574ZM82.5535 18.265L84.5789 15.8389C85.9799 16.9957 87.4484 17.7305 89.2286 17.7305C90.6306 17.7305 91.4757 17.1735 91.4757 16.262V16.2181C91.4757 15.3505 90.9412 14.9049 88.3385 14.2376C85.2012 13.4365 83.1768 12.5689 83.1768 9.4766V9.43161C83.1768 6.60605 85.4454 4.73698 88.6277 4.73698C90.8973 4.73698 92.8328 5.44926 94.4127 6.71744L92.6325 9.29772C91.2529 8.34123 89.8959 7.76284 88.5838 7.76284C87.2706 7.76284 86.5808 8.36372 86.5808 9.11992V9.16491C86.5808 10.1878 87.2492 10.522 89.9398 11.2118C93.1006 12.0344 94.8797 13.1697 94.8797 15.8839V15.9278C94.8797 19.0212 92.5222 20.7563 89.1622 20.7563C86.8036 20.7563 84.4225 19.9327 82.5535 18.265Z" fill="#4A4949"/>
<path d="M96.7434 4.95917H99.9032L107.202 14.5487V4.95917H110.583V20.533H107.668L100.126 10.6328V20.533H96.7434V4.95917Z" fill="#4A4949"/>
<path d="M113.356 4.95917H116.782V20.533H113.356V4.95917Z" fill="#4A4949"/>
<path d="M131.843 12.7903V12.7453C131.843 10.0761 129.886 7.85143 127.127 7.85143C124.368 7.85143 122.454 10.0311 122.454 12.7014V12.7453C122.454 15.4155 124.413 17.6402 127.172 17.6402C129.93 17.6402 131.843 15.4605 131.843 12.7903ZM118.873 12.7903V12.7453C118.873 8.31843 122.365 4.69169 127.172 4.69169C131.977 4.69169 135.426 8.27344 135.426 12.7014V12.7453C135.426 17.1732 131.933 20.801 127.127 20.801C122.32 20.801 118.873 17.2182 118.873 12.7903Z" fill="#4A4949"/>
<path d="M135.26 4.95925H138.93L142.157 15.5053L145.649 4.91427H148.586L152.08 15.5053L155.306 4.95925H158.888L153.571 20.6455H150.589L147.073 10.454L143.559 20.6455H140.577L135.26 4.95925Z" fill="#4A4949"/>
<path d="M158.792 18.2645L160.816 15.8384C162.218 16.9952 163.685 17.73 165.464 17.73C166.868 17.73 167.713 17.173 167.713 16.2615V16.2176C167.713 15.35 167.179 14.9044 164.575 14.2371C161.439 13.436 159.414 12.5684 159.414 9.47611V9.43112C159.414 6.60556 161.683 4.73756 164.865 4.73756C167.134 4.73756 169.071 5.44877 170.65 6.71696L168.869 9.29724C167.49 8.34074 166.133 7.76235 164.821 7.76235C163.508 7.76235 162.819 8.36324 162.819 9.11943V9.16442C162.819 10.1873 163.486 10.5215 166.178 11.2113C169.338 12.0339 171.117 13.1693 171.117 15.8834V15.9273C171.117 19.0207 168.759 20.7559 165.399 20.7559C163.041 20.7559 160.66 19.9333 158.792 18.2645" fill="#4A4949"/>
<path d="M172.973 4.95917H176.4V11.7671L182.718 4.95917H186.857L180.516 11.5668L187.145 20.533H183.03L178.201 13.9039L176.4 15.7719V20.533H172.973V4.95917Z" fill="#4A4949"/>
<path d="M188.257 4.95917H191.684V20.533H188.257V4.95917Z" fill="#4A4949"/>
<path d="M11.1277 11.2253L6.24459 3.81539H12.1956L14.8605 1.14942H0.563477L14.9848 23.032L21.9223 16.1095L28.8609 23.032L43.28 1.14942H28.984L31.65 3.81539H37.6L32.7168 11.2253L21.9223 0.430712L11.1277 11.2253ZM12.9732 14.0272L21.9223 5.07928L30.8713 14.0272L28.3414 17.865L21.9223 11.4448L15.5032 17.865L12.9732 14.0272Z" fill="url(#paint0_linear_64_10544)"/>
<path d="M9.09051 1.4499H1.11938L6.90975 10.4846L8.42 10.0712L3.58827 2.56491H11.704L12.638 2.35604L14.3293 1.4499H9.09051Z" fill="url(#paint1_linear_64_10544)"/>
<path d="M34.7537 1.45038H29.5139L31.2063 2.35653L32.1413 2.5654H40.256L35.4242 10.0717L36.9345 10.4851L42.7238 1.45038H34.7537Z" fill="url(#paint2_linear_64_10544)"/>
<path d="M12.6379 2.35608L11.7039 2.56495H3.58813L7.07564 7.98364H8.62766L6.06559 4.09662C6.06559 4.09662 5.85887 3.81492 6.20269 3.81492H12.1955L14.8604 1.14896L12.6379 2.35608Z" fill="url(#paint3_linear_64_10544)"/>
<path d="M31.6496 3.81541H37.6424C37.9852 3.81541 37.7795 4.09711 37.7795 4.09711L35.2174 7.98413H36.7684L40.2559 2.56544H32.1412L31.2062 2.35657L28.9836 1.14944L31.6496 3.81541Z" fill="url(#paint4_linear_64_10544)"/>
<path d="M7.03174 7.91624L10.8577 13.8608L11.856 12.8819L8.58269 7.91624H7.03174Z" fill="url(#paint5_linear_64_10544)"/>
<path d="M35.2615 7.91624L31.9893 12.8819L32.9854 13.8608L36.8113 7.91624H35.2615Z" fill="url(#paint6_linear_64_10544)"/>
<path d="M11.0784 11.7039L10.8792 13.8386L21.9222 3.09657L32.9642 13.8386L32.7649 11.7039L21.9222 0.860108L11.0784 11.7039Z" fill="url(#paint7_linear_64_10544)"/>
<path d="M14.5862 10.231L21.9221 5.07897L29.2581 10.231L21.9221 3.09636L14.5862 10.231Z" fill="url(#paint8_linear_64_10544)"/>
<path d="M15.0425 9.78857L10.8792 13.8384L12.7546 14.2476L21.9222 5.07894L31.0897 14.2476L32.9642 13.8384L28.8029 9.78857C27.3055 8.33402 22.3292 4.88936 21.9222 4.88936C21.5162 4.88936 16.5378 8.33402 15.0425 9.78857Z" fill="url(#paint9_linear_64_10544)"/>
<path d="M15.4539 18.3433L16.1372 19.3662L21.9222 13.9572L27.7072 19.3662L28.3906 18.3433L21.9222 11.8749L15.4539 18.3433Z" fill="url(#paint10_linear_64_10544)"/>
<path d="M28.789 20.3789L21.9222 13.9576L15.0543 20.3789L8.38349 10.0149L6.87109 10.423L14.9847 23.032L21.9222 16.1095L28.8608 23.032L36.9743 10.423L35.4598 10.0149L28.789 20.3789Z" fill="url(#paint11_linear_64_10544)"/>
<path d="M10.8577 13.861L15.0542 20.3787L17.9301 17.6891L17.0443 16.7508L15.4538 18.3436L11.8559 12.882L10.8577 13.861Z" fill="url(#paint12_linear_64_10544)"/>
<path d="M28.3904 18.3436L26.7999 16.7508L25.9141 17.6891L28.7889 20.3787L32.9855 13.861L31.9893 12.882L28.3904 18.3436Z" fill="url(#paint13_linear_64_10544)"/>
<path d="M17.3057 18.5523V20.718L21.9221 16.1091L26.5385 20.718V18.5523C26.1294 18.1442 22.7543 16.1594 21.9221 15.8895C21.0899 16.1594 17.7148 18.1442 17.3057 18.5523Z" fill="url(#paint14_linear_64_10544)"/>
<path d="M28.8606 23.032L30.8668 19.9151V19.2178C29.9392 20.728 28.8606 22.5832 28.8606 23.032Z" fill="url(#paint15_linear_64_10544)"/>
<path d="M12.9775 19.9151L14.9848 23.032C14.9848 22.5832 13.9051 20.728 12.9775 19.2178V19.9151Z" fill="url(#paint16_linear_64_10544)"/>
<path d="M28.8608 23.0327L21.9222 16.1102L14.9847 23.0327L0.56447 1.14906H14.8604L12.1955 3.81502H6.24451L11.1277 11.226L21.9222 0.430349L32.7178 11.226L37.5999 3.81502H31.6499L28.985 1.14906H43.281L28.8608 23.0327ZM28.262 0.847006L31.5289 4.11707H37.0376L32.6653 10.7525L21.9222 0.00190735L11.1791 10.7525L6.80684 4.11707H12.3155L15.5824 0.847006H0L14.9365 23.5115L21.9222 16.5247L28.909 23.5115L43.8444 0.847006H28.262ZM28.2931 17.3901L21.9222 11.015L15.5524 17.3901L13.3641 14.0676L21.9222 5.5095L30.4803 14.0676L28.2931 17.3901ZM12.9732 14.028L15.5031 17.8657L21.9222 11.4455L28.3424 17.8657L30.8702 14.028L21.9222 5.07892L12.9732 14.028Z" fill="#1D1D1B"/>
<path d="M13.0588 2.04887C12.4986 2.30165 12.1098 2.40876 11.465 2.40876H4.42676C3.39957 2.40876 3.14572 2.42375 3.98868 3.69729L10.758 13.9841L10.9273 13.8449C10.9273 13.8449 4.47924 3.8526 4.26824 3.51627C3.99832 3.08462 3.95012 2.67867 4.6292 2.64333H10.9701C12.0155 2.64333 12.3754 2.60905 13.2601 2.10992C13.2601 2.10992 14.1277 1.58187 14.8603 1.14914L13.0588 2.04887Z" fill="url(#paint17_linear_64_10544)"/>
<path d="M30.5839 2.11016C31.4686 2.6093 31.8274 2.64357 32.8739 2.64357H39.2148C39.8939 2.67892 39.8457 3.08486 39.5757 3.51652C39.3637 3.85284 32.9156 13.8451 32.9156 13.8451L33.086 13.9844L39.8553 3.69754C40.6993 2.424 40.4433 2.409 39.4162 2.409H32.3801C31.7342 2.409 31.3443 2.30189 30.7852 2.04911L28.9836 1.14939C29.7152 1.58211 30.5839 2.11016 30.5839 2.11016Z" fill="url(#paint18_linear_64_10544)"/>
<path d="M29.784 18.5686C28.549 20.338 28.579 20.1174 26.6489 18.2986L24.7081 16.3171L24.4938 16.5196L26.4497 18.4625L28.1249 20.1292C28.7236 20.7076 28.7868 20.6829 29.2356 19.9974L33.0862 13.9843L32.9159 13.845L29.784 18.5686ZM10.7581 13.9843L14.6076 19.9974C15.0585 20.6829 15.1206 20.7076 15.7183 20.1292L17.3946 18.4625L19.3504 16.5196L19.1362 16.3171L17.1943 18.2986C15.2642 20.1174 15.2942 20.338 14.0592 18.5686L10.9273 13.845L10.7581 13.9843Z" fill="url(#paint19_linear_64_10544)"/>
<path d="M21.1852 14.2252L19.1362 16.3171L19.3505 16.5195L20.5008 15.3713C21.4584 14.4416 21.5687 14.3184 21.9222 14.3184C22.2767 14.3184 22.3859 14.4416 23.3435 15.3713L24.4949 16.5195L24.7102 16.3171L22.658 14.2252C22.658 14.2252 22.2392 13.7668 21.9222 13.7668C21.6062 13.7668 21.1852 14.2252 21.1852 14.2252Z" fill="url(#paint20_linear_64_10544)"/>
<path d="M21.1853 3.32675L11.7415 12.9988L20.5009 4.47497C21.4649 3.5399 21.5859 3.42208 21.9223 3.42208C22.2586 3.42208 22.3796 3.5399 23.3436 4.47497L32.1041 12.9988L22.6581 3.32675C22.6581 3.32675 22.2243 2.86832 21.9223 2.86832C21.6202 2.86832 21.1853 3.32675 21.1853 3.32675Z" fill="url(#paint21_linear_64_10544)"/>
<defs>
<linearGradient id="paint0_linear_64_10544" x1="0.563477" y1="11.7319" x2="43.28" y2="11.7319" gradientUnits="userSpaceOnUse">
<stop stop-color="#B2B2B2"/>
<stop offset="0.3" stop-color="white"/>
<stop offset="0.7" stop-color="white"/>
<stop offset="1" stop-color="#B2B2B2"/>
</linearGradient>
<linearGradient id="paint1_linear_64_10544" x1="7.0265" y1="2.63025" x2="4.46122" y2="6.97131" gradientUnits="userSpaceOnUse">
<stop stop-color="white"/>
<stop offset="0.18" stop-color="#C7C7C6"/>
<stop offset="0.52" stop-color="#1D1D1B"/>
<stop offset="0.9" stop-color="#70706F"/>
<stop offset="1" stop-color="#70706F"/>
</linearGradient>
<linearGradient id="paint2_linear_64_10544" x1="36.8167" y1="2.63074" x2="39.382" y2="6.97179" gradientUnits="userSpaceOnUse">
<stop stop-color="white"/>
<stop offset="0.18" stop-color="#C7C7C6"/>
<stop offset="0.52" stop-color="#1D1D1B"/>
<stop offset="0.9" stop-color="#70706F"/>
<stop offset="1" stop-color="#70706F"/>
</linearGradient>
<linearGradient id="paint3_linear_64_10544" x1="10.6735" y1="-0.362367" x2="6.66433" y2="5.77396" gradientUnits="userSpaceOnUse">
<stop stop-color="#C7C7C6"/>
<stop offset="0.32" stop-color="#1D1D1B"/>
<stop offset="0.58" stop-color="#878787"/>
<stop offset="0.85" stop-color="#9D9C9C"/>
<stop offset="1" stop-color="#E4E4E3"/>
</linearGradient>
<linearGradient id="paint4_linear_64_10544" x1="33.1706" y1="-0.361879" x2="37.1797" y2="5.77445" gradientUnits="userSpaceOnUse">
<stop stop-color="#C7C7C6"/>
<stop offset="0.32" stop-color="#1D1D1B"/>
<stop offset="0.58" stop-color="#878787"/>
<stop offset="0.85" stop-color="#9D9C9C"/>
<stop offset="1" stop-color="#E4E4E3"/>
</linearGradient>
<linearGradient id="paint5_linear_64_10544" x1="7.87576" y1="8.09618" x2="11.2101" y2="13.1447" gradientUnits="userSpaceOnUse">
<stop stop-color="#E4E4E3"/>
<stop offset="0.25451" stop-color="#E4E4E3"/>
<stop offset="0.8" stop-color="#C7C7C6"/>
<stop offset="1" stop-color="#C7C7C6"/>
</linearGradient>
<linearGradient id="paint6_linear_64_10544" x1="35.9684" y1="8.09618" x2="32.6341" y2="13.1447" gradientUnits="userSpaceOnUse">
<stop stop-color="#E4E4E3"/>
<stop offset="0.25451" stop-color="#E4E4E3"/>
<stop offset="0.8" stop-color="#C7C7C6"/>
<stop offset="1" stop-color="#C7C7C6"/>
</linearGradient>
<linearGradient id="paint7_linear_64_10544" x1="11.0773" y1="7.34883" x2="32.7339" y2="7.34883" gradientUnits="userSpaceOnUse">
<stop stop-color="#C7C7C6"/>
<stop offset="0.15" stop-color="#9D9C9C"/>
<stop offset="0.4" stop-color="white"/>
<stop offset="0.6" stop-color="white"/>
<stop offset="0.85" stop-color="#9D9C9C"/>
<stop offset="0.94155" stop-color="#C7C7C6"/>
<stop offset="1" stop-color="#C7C7C6"/>
</linearGradient>
<linearGradient id="paint8_linear_64_10544" x1="14.5862" y1="6.66312" x2="29.2581" y2="6.66312" gradientUnits="userSpaceOnUse">
<stop stop-color="#878787"/>
<stop offset="0.5" stop-color="#1D1D1B"/>
<stop offset="1" stop-color="#878787"/>
</linearGradient>
<linearGradient id="paint9_linear_64_10544" x1="12.7825" y1="9.56792" x2="31.019" y2="9.56792" gradientUnits="userSpaceOnUse">
<stop stop-color="#C7C7C6"/>
<stop offset="0.1" stop-color="#70706F"/>
<stop offset="0.35" stop-color="#878787"/>
<stop offset="0.65" stop-color="#878787"/>
<stop offset="0.9" stop-color="#70706F"/>
<stop offset="1" stop-color="#C7C7C6"/>
</linearGradient>
<linearGradient id="paint10_linear_64_10544" x1="16.1254" y1="15.6206" x2="27.7008" y2="15.6206" gradientUnits="userSpaceOnUse">
<stop stop-color="#A8A7A7"/>
<stop offset="0.15" stop-color="#A8A7A7"/>
<stop offset="0.4" stop-color="white"/>
<stop offset="0.6" stop-color="white"/>
<stop offset="0.85" stop-color="#A8A7A7"/>
<stop offset="0.94155" stop-color="#A8A7A7"/>
<stop offset="1" stop-color="#A8A7A7"/>
</linearGradient>
<linearGradient id="paint11_linear_64_10544" x1="6.87109" y1="16.524" x2="36.9743" y2="16.524" gradientUnits="userSpaceOnUse">
<stop stop-color="#70706F"/>
<stop offset="0.15" stop-color="#70706F"/>
<stop offset="0.23" stop-color="#1D1D1B"/>
<stop offset="0.29" stop-color="#9D9C9C"/>
<stop offset="0.34444" stop-color="#70706F"/>
<stop offset="0.5" stop-color="#1D1D1B"/>
<stop offset="0.65" stop-color="#70706F"/>
<stop offset="0.71" stop-color="#9D9C9C"/>
<stop offset="0.77" stop-color="#1D1D1B"/>
<stop offset="0.85" stop-color="#70706F"/>
<stop offset="1" stop-color="#70706F"/>
</linearGradient>
<linearGradient id="paint12_linear_64_10544" x1="12.3336" y1="16.4049" x2="16.7863" y2="17.3032" gradientUnits="userSpaceOnUse">
<stop stop-color="#C7C7C6"/>
<stop offset="0.75" stop-color="white"/>
<stop offset="1" stop-color="#A8A7A7"/>
</linearGradient>
<linearGradient id="paint13_linear_64_10544" x1="31.5106" y1="16.4049" x2="27.0582" y2="17.3032" gradientUnits="userSpaceOnUse">
<stop stop-color="#C7C7C6"/>
<stop offset="0.75" stop-color="white"/>
<stop offset="1" stop-color="#A8A7A7"/>
</linearGradient>
<linearGradient id="paint14_linear_64_10544" x1="17.3057" y1="18.3038" x2="26.5391" y2="18.3038" gradientUnits="userSpaceOnUse">
<stop stop-color="#70706F"/>
<stop offset="0.45" stop-color="#878787"/>
<stop offset="0.55" stop-color="#878787"/>
<stop offset="1" stop-color="#70706F"/>
</linearGradient>
<linearGradient id="paint15_linear_64_10544" x1="30.8389" y1="21.1254" x2="28.8726" y2="21.1254" gradientUnits="userSpaceOnUse">
<stop stop-color="#3D3D3C"/>
<stop offset="0.05" stop-color="#3D3D3C"/>
<stop offset="0.35" stop-color="#575756"/>
<stop offset="1" stop-color="#9D9C9C"/>
</linearGradient>
<linearGradient id="paint16_linear_64_10544" x1="13.0054" y1="21.1254" x2="14.9722" y2="21.1254" gradientUnits="userSpaceOnUse">
<stop stop-color="#3D3D3C"/>
<stop offset="0.05" stop-color="#3D3D3C"/>
<stop offset="0.35" stop-color="#575756"/>
<stop offset="1" stop-color="#9D9C9C"/>
</linearGradient>
<linearGradient id="paint17_linear_64_10544" x1="1.75544" y1="1.5733" x2="7.44705" y2="4.65957" gradientUnits="userSpaceOnUse">
<stop stop-color="#1D1D1B"/>
<stop offset="0.2" stop-color="#1D1D1B"/>
<stop offset="1" stop-color="white"/>
</linearGradient>
<linearGradient id="paint18_linear_64_10544" x1="42.0875" y1="1.57354" x2="36.3958" y2="4.65981" gradientUnits="userSpaceOnUse">
<stop stop-color="#1D1D1B"/>
<stop offset="0.2" stop-color="#1D1D1B"/>
<stop offset="1" stop-color="white"/>
</linearGradient>
<linearGradient id="paint19_linear_64_10544" x1="21.9221" y1="16.6127" x2="21.9221" y2="21.5511" gradientUnits="userSpaceOnUse">
<stop stop-color="white"/>
<stop offset="0.19369" stop-color="white"/>
<stop offset="0.95" stop-color="#9D9C9C"/>
<stop offset="1" stop-color="#9D9C9C"/>
</linearGradient>
<linearGradient id="paint20_linear_64_10544" x1="21.9222" y1="16.5217" x2="21.9222" y2="13.7863" gradientUnits="userSpaceOnUse">
<stop stop-color="white"/>
<stop offset="0.67222" stop-color="#EDEDED"/>
<stop offset="0.7765" stop-color="#EDEDED"/>
<stop offset="1" stop-color="#C7C7C6"/>
</linearGradient>
<linearGradient id="paint21_linear_64_10544" x1="21.9223" y1="13.0106" x2="21.9223" y2="2.94222" gradientUnits="userSpaceOnUse">
<stop stop-color="#C7C7C6"/>
<stop offset="0.5" stop-color="#EDEDED"/>
<stop offset="1" stop-color="#C7C7C6"/>
</linearGradient>
</defs>
</svg>
