<svg style="display: none;" aria-hidden="true" xmlns="http://www.w3.org/2000/svg" xmlns:xlink="http://www.w3.org/1999/xlink"><symbol viewBox="0 0 19 19" id="svg-phone" xmlns="http://www.w3.org/2000/svg"><path d="M17.703 13.753c-.09-.069-.18-.139-.267-.21-.46-.369-.948-.709-1.42-1.038l-.293-.205c-.605-.425-1.148-.631-1.661-.631-.693 0-1.296.382-1.794 1.136-.22.334-.488.496-.818.496a1.624 1.624 0 0 1-.659-.165c-1.95-.885-3.344-2.242-4.141-4.033-.386-.866-.26-1.432.417-1.893.385-.26 1.101-.747 1.052-1.68C8.06 4.474 5.727 1.29 4.743.93A1.916 1.916 0 0 0 3.44.925c-1.13.38-1.94 1.048-2.346 1.93-.392.853-.374 1.854.05 2.896 1.227 3.011 2.952 5.638 5.128 7.805 2.128 2.121 4.745 3.858 7.777 5.164.273.117.56.182.77.228.07.016.132.03.177.042.024.007.05.01.075.01h.025c1.426 0 3.138-1.302 3.664-2.787.46-1.301-.381-1.944-1.057-2.46Z"/></symbol></svg>