<svg width="19" height="19" viewBox="0 0 19 19" xmlns="http://www.w3.org/2000/svg">
<path d="M17.7033 13.7527C17.6131 13.6842 17.5238 13.6145 17.4355 13.5436C16.9763 13.1741 16.4882 12.8344 16.0169 12.5049L15.7229 12.2996C15.1181 11.8749 14.5749 11.6687 14.0616 11.6687C13.3692 11.6687 12.7663 12.0513 12.2679 12.8045C12.0476 13.1386 11.7798 13.301 11.4503 13.301C11.2215 13.293 10.997 13.2367 10.7914 13.1358C8.84088 12.2511 7.44656 10.8941 6.64954 9.10311C6.2641 8.23702 6.38916 7.67146 7.06672 7.21042C7.45216 6.9491 8.16799 6.46286 8.11852 5.53051C8.06066 4.47311 5.72653 1.28969 4.74285 0.928514C4.32234 0.775122 3.86139 0.773801 3.44 0.924781C2.30979 1.30463 1.49971 1.97285 1.09373 2.8548C0.701755 3.70782 0.72042 4.70923 1.14413 5.75077C2.37139 8.76246 4.09609 11.3887 6.27156 13.5558C8.40037 15.6771 11.0173 17.414 14.0486 18.7196C14.322 18.8372 14.6085 18.9016 14.8185 18.9483C14.8895 18.9641 14.9511 18.9781 14.9959 18.9903C15.0205 18.9969 15.0459 19.0004 15.0715 19.0005H15.0957C16.5218 19.0005 18.2343 17.6977 18.7598 16.2128C19.2208 14.9118 18.379 14.2688 17.7033 13.7527Z" />
</svg>
